<svg width="68" height="68" viewBox="0 0 68 68" fill="none" xmlns="http://www.w3.org/2000/svg">
<rect width="68" height="68" rx="16" fill="#F7F7F7"/>
<path d="M22.5793 41.1343L26.8429 45.3956L26.6875 45.4733M26.6875 45.4733L32.0987 42.7688L25.2083 35.8762L19.6611 46.9725C19.2315 47.8319 20.1431 48.7437 21.0026 48.3142L26.6875 45.4733Z" stroke="black" stroke-linejoin="round"/>
<path d="M36.7084 40.4587L27.5114 31.264L25.207 35.8728L32.0974 42.7654L36.7084 40.4587Z" stroke="black" stroke-linejoin="round"/>
<path d="M42.0753 31.9744C41.4578 32.5919 40.4556 32.5919 39.8381 31.9744C39.2206 31.3569 39.2206 30.3547 39.8381 29.7372C40.4556 29.1197 41.4578 29.1197 42.0753 29.7372C42.6928 30.3547 42.6928 31.3535 42.0753 31.9744Z" fill="#4DAC27"/>
<path d="M40.8982 16.4073L36.0859 17.0912C38.8887 24.3816 37.5513 27.5424 37.5513 27.5424C37.5513 27.5424 41.472 23.3558 40.8982 16.4073Z" stroke="black" stroke-linejoin="round"/>
<path d="M49.6148 36.8972L47.4595 39.9962C44.882 36.4786 42.1289 36.271 42.1289 36.271C42.1289 36.271 46.5175 35.0524 49.6148 36.8972Z" stroke="black" stroke-linejoin="round"/>
<path d="M44.707 26.3798L47.2103 28.2315L48.4082 25.7283L44.707 26.3798Z" stroke="black" stroke-linejoin="round"/>
<path d="M28.8217 24.0165C28.8217 24.739 28.2364 25.3219 27.5163 25.3219C26.7962 25.3219 26.2109 24.7367 26.2109 24.0165C26.2109 23.2964 26.7962 22.7112 27.5163 22.7112C28.2364 22.7112 28.8217 23.2964 28.8217 24.0165Z" stroke="black" stroke-linejoin="round"/>
<path d="M33.4991 26.8622C33.5645 26.8001 33.6465 26.7583 33.7352 26.7418C33.8239 26.7254 33.9155 26.7349 33.9988 26.7693C34.0822 26.8037 34.1539 26.8615 34.2051 26.9358C34.2563 27.01 34.285 27.0975 34.2876 27.1877L34.3196 28.2854C34.3219 28.3652 34.3445 28.4431 34.3854 28.5116C34.4263 28.5801 34.4841 28.6371 34.5532 28.6769L35.5005 29.2225C35.5764 29.2661 35.6385 29.3302 35.6797 29.4074C35.721 29.4846 35.7397 29.5718 35.7338 29.6591C35.7279 29.7464 35.6976 29.8303 35.6463 29.9013C35.595 29.9722 35.5249 30.0273 35.4438 30.0603L34.3683 30.4988C34.2978 30.5275 34.2353 30.573 34.1864 30.6314C34.1374 30.6897 34.1035 30.7592 34.0876 30.8337L33.8432 31.9719C33.8244 32.059 33.7811 32.1389 33.7184 32.2022C33.6556 32.2655 33.5761 32.3095 33.4892 32.3291C33.4023 32.3487 33.3116 32.343 33.2278 32.3127C33.144 32.2825 33.0706 32.2289 33.0163 32.1583L32.3734 31.3209C32.3234 31.2559 32.2572 31.2052 32.1814 31.1739C32.1056 31.1426 32.0229 31.1318 31.9416 31.1426L30.8974 31.2827C30.8091 31.2944 30.7192 31.2807 30.6385 31.243C30.5577 31.2054 30.4894 31.1454 30.4416 31.0702C30.3938 30.9951 30.3685 30.9078 30.3687 30.8187C30.3689 30.7296 30.3945 30.6424 30.4426 30.5674L31.0714 29.5878C31.1126 29.5237 31.1375 29.4506 31.144 29.3747C31.1505 29.2988 31.1383 29.2224 31.1086 29.1523L30.6551 28.0838C30.6209 28.0033 30.61 27.9147 30.6237 27.8283C30.6373 27.7418 30.675 27.6609 30.7324 27.5949C30.7898 27.5288 30.8646 27.4802 30.9483 27.4546C31.032 27.429 31.1212 27.4274 31.2058 27.45L32.2621 27.7313C32.3392 27.7518 32.4203 27.7522 32.4977 27.7325C32.575 27.7127 32.646 27.6735 32.7038 27.6185L33.4991 26.8622Z" fill="#4DAC27"/>
<path d="M36.9875 34.4075C36.9952 34.3588 37.0169 34.3135 37.0499 34.2769C37.0829 34.2404 37.1257 34.2141 37.1733 34.2014C37.2209 34.1886 37.2711 34.1899 37.318 34.2051C37.3648 34.2203 37.4063 34.2487 37.4373 34.2869L37.8154 34.7522C37.8429 34.7861 37.8785 34.8123 37.919 34.8285C37.9595 34.8446 38.0034 34.8501 38.0466 34.8445L38.6383 34.7667C38.6857 34.7604 38.7339 34.7676 38.7774 34.7874C38.8209 34.8071 38.8579 34.8387 38.8843 34.8786C38.9107 34.9184 38.9254 34.9648 38.9267 35.0126C38.928 35.0604 38.9159 35.1075 38.8917 35.1487L38.5709 35.6957C38.5499 35.7315 38.5379 35.772 38.536 35.8135C38.5342 35.8551 38.5425 35.8964 38.5603 35.934L38.832 36.5086C38.8528 36.5526 38.8605 36.6016 38.8543 36.6498C38.8482 36.6981 38.8283 36.7435 38.7971 36.7809C38.7659 36.8182 38.7247 36.8458 38.6784 36.8605C38.632 36.8752 38.5824 36.8763 38.5354 36.8637L37.9788 36.714C37.9356 36.7024 37.8901 36.7024 37.8468 36.714C37.8036 36.7256 37.7642 36.7483 37.7325 36.78L37.3262 37.1872C37.2918 37.2216 37.2483 37.2454 37.2008 37.2559C37.1533 37.2664 37.1038 37.263 37.0582 37.2463C37.0125 37.2296 36.9726 37.2001 36.9431 37.1614C36.9136 37.1227 36.8958 37.0764 36.8918 37.028L36.8393 36.3946C36.8359 36.3532 36.8224 36.3132 36.8001 36.2781C36.7777 36.2431 36.7471 36.214 36.7109 36.1935L36.1598 35.8807C36.1182 35.8572 36.0841 35.8224 36.0614 35.7804C36.0386 35.7383 36.0281 35.6908 36.0311 35.6431C36.0341 35.5954 36.0504 35.5495 36.0781 35.5106C36.1059 35.4718 36.1441 35.4415 36.1882 35.4232L36.7395 35.1947C36.7798 35.178 36.8151 35.1513 36.8421 35.117C36.869 35.0828 36.8868 35.0423 36.8936 34.9992L36.9875 34.4075Z" fill="#4DAC27"/>
</svg>
