<svg width="68" height="68" viewBox="0 0 68 68" fill="none" xmlns="http://www.w3.org/2000/svg">
<rect width="68" height="68" rx="16" fill="#F7F7F7"/>
<rect x="17.8333" y="22.834" width="32.3333" height="22.3333" rx="1" stroke="black"/>
<path d="M29.8333 44.8333V31.5V24M38.9999 39.8333H46.4999" stroke="black" stroke-linecap="round"/>
<path d="M18.1667 30.666H23.1667" stroke="black" stroke-linecap="round"/>
<path d="M40.6667 35.666H46.5001" stroke="black" stroke-linecap="round"/>
<path d="M34.2913 37.0418L30.0172 32.054L25.7415 37.0418C25.663 37.1334 25.5655 37.2065 25.4558 37.2567C25.3462 37.3069 25.2273 37.3327 25.1067 37.3324C24.9081 37.3324 24.7157 37.2613 24.5647 37.1322C24.3974 36.9882 24.2942 36.7835 24.2775 36.5633C24.2607 36.3432 24.3323 36.1255 24.476 35.9579L26.2257 33.9217C25.9983 33.9742 25.7657 34.0005 25.5323 34.0007C24.6669 33.9816 23.8446 33.6198 23.2456 32.9948C22.6465 32.3698 22.3197 31.5328 22.3373 30.6673C22.3197 29.8018 22.6465 28.9648 23.2456 28.3399C23.8446 27.7149 24.6669 27.353 25.5323 27.334C26.3144 27.3351 27.0675 27.6307 27.6417 28.1616L29.6705 29.8332L31.7921 28.1616C32.4022 27.6272 33.1864 27.3329 33.9975 27.334C34.4359 27.333 34.8699 27.4184 35.2752 27.5855C35.6805 27.7525 36.0488 27.9977 36.3592 28.3073C36.6695 28.6169 36.9155 28.9847 37.0834 29.3897C37.2514 29.7946 37.3382 30.229 37.3382 30.6673C37.3382 31.1057 37.2514 31.5401 37.0834 31.945C36.9155 32.3499 36.6695 32.7177 36.3592 33.0274C36.0488 33.337 35.6805 33.5821 35.2752 33.7492C34.8699 33.9163 34.4359 34.0016 33.9975 34.0007H33.8811L35.5624 35.9611C35.7061 36.1288 35.7771 36.3472 35.7602 36.5674C35.7433 36.7875 35.6396 36.9916 35.4721 37.1354C35.3212 37.2645 35.1296 37.3356 34.9309 37.3356C34.8094 37.3362 34.689 37.3099 34.5786 37.2591C34.4681 37.2083 34.3699 37.1345 34.2913 37.0418ZM32.8867 29.4149C32.8651 29.4343 32.8425 29.453 32.8191 29.4702L31.3063 30.6641L32.7825 31.8376C32.8245 31.8657 32.8643 31.896 32.9021 31.9295C33.2055 32.1912 33.5936 32.3348 33.9943 32.3332C34.4372 32.3334 34.8618 32.1581 35.1759 31.8457C35.49 31.5334 35.6677 31.1094 35.6699 30.6665C35.6681 30.2234 35.4909 29.7989 35.1767 29.4865C34.8625 29.1741 34.4373 28.9992 33.9943 28.9998C33.5866 28.999 33.1926 29.1455 32.8867 29.4149ZM24.0008 30.6665C23.9838 31.0897 24.1345 31.5026 24.4207 31.8148C24.7068 32.127 25.1052 32.3133 25.5283 32.3332C25.8868 32.333 26.2323 32.1978 26.4959 31.9548C26.5332 31.9205 26.5724 31.8886 26.6139 31.8595L28.0543 30.6633L26.5789 29.4466C26.5553 29.4288 26.5327 29.4093 26.5113 29.3888C26.2447 29.1392 25.8935 29.0002 25.5283 28.9998C25.105 29.0191 24.7062 29.205 24.4199 29.5174C24.1336 29.8298 23.9831 30.2432 24.0008 30.6665Z" fill="#4DAC27"/>
</svg>
